<?xml version="1.0" encoding="UTF-8" standalone="no"?>
<!-- Created with Inkscape (http://www.inkscape.org/) -->

<svg
   width="1430.5685"
   height="594.92395"
   viewBox="0 0 1430.5685 594.92395"
   version="1.1"
   id="svg1"
   xml:space="preserve"
   xmlns:xlink="http://www.w3.org/1999/xlink"
   xmlns="http://www.w3.org/2000/svg"
   xmlns:svg="http://www.w3.org/2000/svg"><defs
     id="defs1"><linearGradient
       id="linearGradient40"><stop
         style="stop-color:#000000;stop-opacity:1;"
         offset="0"
         id="stop36" /><stop
         style="stop-color:#000000;stop-opacity:1;"
         offset="0.3500281"
         id="stop37" /><stop
         style="stop-color:#ffffff;stop-opacity:1;"
         offset="0.42029962"
         id="stop38" /><stop
         style="stop-color:#000000;stop-opacity:1;"
         offset="0.79601997"
         id="stop39" /><stop
         style="stop-color:#000000;stop-opacity:1;"
         offset="1"
         id="stop40" /></linearGradient><linearGradient
       id="linearGradient31"><stop
         style="stop-color:#000000;stop-opacity:1;"
         offset="0"
         id="stop31" /><stop
         style="stop-color:#000000;stop-opacity:1;"
         offset="0.36937195"
         id="stop34" /><stop
         style="stop-color:#ffffff;stop-opacity:1;"
         offset="0.42029962"
         id="stop33" /><stop
         style="stop-color:#000000;stop-opacity:1;"
         offset="0.77370101"
         id="stop35" /><stop
         style="stop-color:#000000;stop-opacity:1;"
         offset="1"
         id="stop32" /></linearGradient><linearGradient
       xlink:href="#linearGradient31"
       id="linearGradient32"
       x1="247.49826"
       y1="404.21429"
       x2="360.02005"
       y2="354.11639"
       gradientUnits="userSpaceOnUse"
       gradientTransform="matrix(1.2198638,0,0,1.2198638,-66.785646,-83.364747)" /><linearGradient
       xlink:href="#linearGradient40"
       id="linearGradient35"
       gradientUnits="userSpaceOnUse"
       gradientTransform="matrix(1.2198638,0,0,1.2198638,127.47143,-83.364747)"
       x1="247.49826"
       y1="404.21429"
       x2="360.02005"
       y2="354.11639" /><filter
       style="color-interpolation-filters:sRGB"
       id="filter48"
       x="-0.22351354"
       y="-0.2345715"
       width="1.4618946"
       height="1.4649252"><feFlood
         result="flood"
         in="SourceGraphic"
         flood-opacity="0.501961"
         flood-color="rgb(0,0,0)"
         id="feFlood47" /><feGaussianBlur
         result="blur"
         in="SourceGraphic"
         stdDeviation="59.693470"
         id="feGaussianBlur47" /><feOffset
         result="offset"
         in="blur"
         dx="14.018959"
         dy="3.595243"
         id="feOffset47" /><feComposite
         result="comp1"
         operator="in"
         in="flood"
         in2="offset"
         id="feComposite47" /><feComposite
         result="comp2"
         operator="over"
         in="SourceGraphic"
         in2="comp1"
         id="feComposite48" /></filter></defs><g
     id="layer1"
     transform="translate(-50.400423,-76.705663)"><text
       xml:space="preserve"
       style="font-style:normal;font-variant:normal;font-weight:bold;font-stretch:normal;font-size:170.667px;font-family:'JetBrains Mono';-inkscape-font-specification:'JetBrains Mono Bold';letter-spacing:-0.21px;writing-mode:lr-tb;direction:ltr;fill:#f9f9f9;fill-opacity:1;stroke:#000000;stroke-width:20;stroke-linecap:round;stroke-linejoin:round;stroke-dasharray:none;stroke-opacity:1;paint-order:stroke fill markers"
       x="671.9408"
       y="214.242"
       id="text50"><tspan
         id="tspan50"
         x="671.9408"
         y="214.242"
         style="stroke:none"><tspan
           style="fill:#f9f9f9;stroke:none;stroke-width:20;stroke-linejoin:round;stroke-dasharray:none;stroke-opacity:1;paint-order:stroke fill markers"
           id="tspan53">G</tspan><tspan
           style="fill:#1a1a1a;stroke:none;stroke-width:20;stroke-linejoin:round;stroke-dasharray:none;stroke-opacity:1;paint-order:stroke fill markers"
           id="tspan56">odot</tspan></tspan><tspan
         x="671.9408"
         y="427.57578"
         id="tspan51"
         style="fill:#f9f9f9;stroke:none;stroke-width:20;stroke-linejoin:round;stroke-dasharray:none;stroke-opacity:1;paint-order:stroke fill markers">O<tspan
   style="fill:#1a1a1a;stroke:none"
   id="tspan58">bject</tspan></tspan><tspan
         x="671.9408"
         y="640.90955"
         id="tspan52"
         style="fill:#f9f9f9;stroke:none;stroke-width:20;stroke-linejoin:round;stroke-dasharray:none;stroke-opacity:1;paint-order:stroke fill markers">C<tspan
   style="fill:#1a1a1a;stroke:none"
   id="tspan59">ompiler</tspan></tspan></text></g><g
     id="layer3"
     transform="translate(-50.400423,-76.705663)"><g
       id="g58"
       transform="translate(-44,-6)"><g
         id="g25"
         transform="matrix(0.45436047,0,0,0.45436047,166.83483,141.04777)"
         style="stroke:#000000;stroke-width:109.457;stroke-dasharray:none;stroke-opacity:1;filter:url(#filter48)"><path
           d="m 0,0 c 0,0 -0.325,1.994 -0.515,1.976 l -36.182,-3.491 c -2.879,-0.278 -5.115,-2.574 -5.317,-5.459 l -0.994,-14.247 -27.992,-1.997 -1.904,12.912 c -0.424,2.872 -2.932,5.037 -5.835,5.037 h -38.188 c -2.902,0 -5.41,-2.165 -5.834,-5.037 l -1.905,-12.912 -27.992,1.997 -0.994,14.247 c -0.202,2.886 -2.438,5.182 -5.317,5.46 l -36.2,3.49 c -0.187,0.018 -0.324,-1.978 -0.511,-1.978 l -0.049,-7.83 30.658,-4.944 1.004,-14.374 c 0.203,-2.91 2.551,-5.263 5.463,-5.472 l 38.551,-2.75 c 0.146,-0.01 0.29,-0.016 0.434,-0.016 2.897,0 5.401,2.166 5.825,5.038 l 1.959,13.286 h 28.005 l 1.959,-13.286 c 0.423,-2.871 2.93,-5.037 5.831,-5.037 0.142,0 0.284,0.005 0.423,0.015 l 38.556,2.75 c 2.911,0.209 5.26,2.562 5.463,5.472 l 1.003,14.374 30.645,4.966 z"
           fill="#ffffff"
           transform="matrix(4.162611,0,0,-4.162611,919.24059,673.15214)"
           id="path18"
           style="stroke:#000000;stroke-width:26.2954;stroke-dasharray:none;stroke-opacity:1" /><path
           d="m 0,0 v -47.514 -6.035 -5.492 c 0.108,-0.001 0.216,-0.005 0.323,-0.015 l 36.196,-3.49 c 1.896,-0.183 3.382,-1.709 3.514,-3.609 l 1.116,-15.978 31.574,-2.253 2.175,14.747 c 0.282,1.912 1.922,3.329 3.856,3.329 h 38.188 c 1.933,0 3.573,-1.417 3.855,-3.329 l 2.175,-14.747 31.575,2.253 1.115,15.978 c 0.133,1.9 1.618,3.425 3.514,3.609 l 36.182,3.49 c 0.107,0.01 0.214,0.014 0.322,0.015 v 4.711 l 0.015,0.005 V 0 c 5.09692,6.4164715 9.92323,13.494208 13.621,19.449 -5.651,9.62 -12.575,18.217 -19.976,26.182 -6.864,-3.455 -13.531,-7.369 -19.828,-11.534 -3.151,3.132 -6.7,5.694 -10.186,8.372 -3.425,2.751 -7.285,4.768 -10.946,7.118 1.09,8.117 1.629,16.108 1.846,24.448 -9.446,4.754 -19.519,7.906 -29.708,10.17 -4.068,-6.837 -7.788,-14.241 -11.028,-21.479 -3.842,0.642 -7.702,0.88 -11.567,0.926 v 0.006 c -0.027,0 -0.052,-0.006 -0.075,-0.006 -0.024,0 -0.049,0.006 -0.073,0.006 V 63.652 C 93.903,63.606 90.046,63.368 86.203,62.726 82.965,69.964 79.247,77.368 75.173,84.205 64.989,81.941 54.915,78.789 45.47,74.035 45.686,65.695 46.225,57.704 47.318,49.587 43.65,47.237 39.795,45.22 36.369,42.469 32.888,39.791 29.333,37.229 26.181,34.097 19.884,38.262 13.219,42.176 6.353,45.631 -1.048,37.666 -7.968,29.069 -13.621,19.449 -9.1783421,12.475308 -4.4130298,5.4661124 0,0 Z"
           fill="#478cbf"
           transform="matrix(4.162611,0,0,-4.162611,104.69892,427.38725)"
           id="path19"
           style="stroke:#000000;stroke-width:26.2954;stroke-dasharray:none;stroke-opacity:1" /><path
           d="m 0,0 -1.121,-16.063 c -0.135,-1.936 -1.675,-3.477 -3.611,-3.616 l -38.555,-2.751 c -0.094,-0.007 -0.188,-0.01 -0.281,-0.01 -1.916,0 -3.569,1.406 -3.852,3.33 l -2.211,14.994 H -81.09 l -2.211,-14.994 c -0.297,-2.018 -2.101,-3.469 -4.133,-3.32 l -38.555,2.751 c -1.936,0.139 -3.476,1.68 -3.611,3.616 L -130.721,0 -163.268,3.138 c 0.015,-3.498 0.06,-7.33 0.06,-8.093 0,-34.374 43.605,-50.896 97.781,-51.086 h 0.066 0.067 c 54.176,0.19 97.766,16.712 97.766,51.086 0,0.777 0.047,4.593 0.063,8.093 z"
           fill="#478cbf"
           transform="matrix(4.162611,0,0,-4.162611,784.07144,718.72312)"
           id="path20"
           style="stroke:#000000;stroke-width:26.2954;stroke-dasharray:none;stroke-opacity:1" /><path
           d="m 0,0 c 0,-12.052 -9.765,-21.815 -21.813,-21.815 -12.042,0 -21.81,9.763 -21.81,21.815 0,12.044 9.768,21.802 21.81,21.802 C -9.765,21.802 0,12.044 0,0"
           fill="#ffffff"
           transform="matrix(4.162611,0,0,-4.162611,389.21484,527.15132)"
           id="path21"
           style="stroke:#000000;stroke-width:26.2954;stroke-dasharray:none;stroke-opacity:1" /><path
           d="m 0,0 c 0,-7.994 -6.479,-14.473 -14.479,-14.473 -7.996,0 -14.479,6.479 -14.479,14.473 0,7.994 6.483,14.479 14.479,14.479 C -6.479,14.479 0,7.994 0,0"
           fill="#414042"
           transform="matrix(4.162611,0,0,-4.162611,367.36686,532.53707)"
           id="path22"
           style="stroke:#000000;stroke-width:26.2954;stroke-dasharray:none;stroke-opacity:1" /><path
           d="m 0,0 c -3.878,0 -7.021,2.858 -7.021,6.381 v 20.081 c 0,3.52 3.143,6.381 7.021,6.381 3.878,0 7.028,-2.861 7.028,-6.381 V 6.381 C 7.028,2.858 3.878,0 0,0"
           fill="#ffffff"
           transform="matrix(4.162611,0,0,-4.162611,511.99336,626.21982)"
           id="path23"
           style="stroke:#000000;stroke-width:26.2954;stroke-dasharray:none;stroke-opacity:1" /><path
           d="m 0,0 c 0,-12.052 9.765,-21.815 21.815,-21.815 12.041,0 21.808,9.763 21.808,21.815 0,12.044 -9.767,21.802 -21.808,21.802 C 9.765,21.802 0,12.044 0,0"
           fill="#ffffff"
           transform="matrix(4.162611,0,0,-4.162611,634.78706,527.15132)"
           id="path24"
           style="stroke:#000000;stroke-width:26.2954;stroke-dasharray:none;stroke-opacity:1" /><path
           d="m 0,0 c 0,-7.994 6.477,-14.473 14.471,-14.473 8.002,0 14.479,6.479 14.479,14.473 0,7.994 -6.477,14.479 -14.479,14.479 C 6.477,14.479 0,7.994 0,0"
           fill="#414042"
           transform="matrix(4.162611,0,0,-4.162611,656.64056,532.53707)"
           id="path25"
           style="stroke:#000000;stroke-width:26.2954;stroke-dasharray:none;stroke-opacity:1" /></g><g
         id="g1"
         transform="matrix(0.45436047,0,0,0.45436047,166.83483,141.04777)"><path
           d="m 0,0 c 0,0 -0.325,1.994 -0.515,1.976 l -36.182,-3.491 c -2.879,-0.278 -5.115,-2.574 -5.317,-5.459 l -0.994,-14.247 -27.992,-1.997 -1.904,12.912 c -0.424,2.872 -2.932,5.037 -5.835,5.037 h -38.188 c -2.902,0 -5.41,-2.165 -5.834,-5.037 l -1.905,-12.912 -27.992,1.997 -0.994,14.247 c -0.202,2.886 -2.438,5.182 -5.317,5.46 l -36.2,3.49 c -0.187,0.018 -0.324,-1.978 -0.511,-1.978 l -0.049,-7.83 30.658,-4.944 1.004,-14.374 c 0.203,-2.91 2.551,-5.263 5.463,-5.472 l 38.551,-2.75 c 0.146,-0.01 0.29,-0.016 0.434,-0.016 2.897,0 5.401,2.166 5.825,5.038 l 1.959,13.286 h 28.005 l 1.959,-13.286 c 0.423,-2.871 2.93,-5.037 5.831,-5.037 0.142,0 0.284,0.005 0.423,0.015 l 38.556,2.75 c 2.911,0.209 5.26,2.562 5.463,5.472 l 1.003,14.374 30.645,4.966 z"
           fill="#ffffff"
           transform="matrix(4.162611,0,0,-4.162611,919.24059,673.15214)"
           id="path1" /><path
           d="m 0,0 v -47.514 -6.035 -5.492 c 0.108,-0.001 0.216,-0.005 0.323,-0.015 l 36.196,-3.49 c 1.896,-0.183 3.382,-1.709 3.514,-3.609 l 1.116,-15.978 31.574,-2.253 2.175,14.747 c 0.282,1.912 1.922,3.329 3.856,3.329 h 38.188 c 1.933,0 3.573,-1.417 3.855,-3.329 l 2.175,-14.747 31.575,2.253 1.115,15.978 c 0.133,1.9 1.618,3.425 3.514,3.609 l 36.182,3.49 c 0.107,0.01 0.214,0.014 0.322,0.015 v 4.711 l 0.015,0.005 V 0 c 5.09692,6.4164715 9.92323,13.494208 13.621,19.449 -5.651,9.62 -12.575,18.217 -19.976,26.182 -6.864,-3.455 -13.531,-7.369 -19.828,-11.534 -3.151,3.132 -6.7,5.694 -10.186,8.372 -3.425,2.751 -7.285,4.768 -10.946,7.118 1.09,8.117 1.629,16.108 1.846,24.448 -9.446,4.754 -19.519,7.906 -29.708,10.17 -4.068,-6.837 -7.788,-14.241 -11.028,-21.479 -3.842,0.642 -7.702,0.88 -11.567,0.926 v 0.006 c -0.027,0 -0.052,-0.006 -0.075,-0.006 -0.024,0 -0.049,0.006 -0.073,0.006 V 63.652 C 93.903,63.606 90.046,63.368 86.203,62.726 82.965,69.964 79.247,77.368 75.173,84.205 64.989,81.941 54.915,78.789 45.47,74.035 45.686,65.695 46.225,57.704 47.318,49.587 43.65,47.237 39.795,45.22 36.369,42.469 32.888,39.791 29.333,37.229 26.181,34.097 19.884,38.262 13.219,42.176 6.353,45.631 -1.048,37.666 -7.968,29.069 -13.621,19.449 -9.1783421,12.475308 -4.4130298,5.4661124 0,0 Z"
           fill="#478cbf"
           transform="matrix(4.162611,0,0,-4.162611,104.69892,427.38725)"
           id="path2" /><path
           d="m 0,0 -1.121,-16.063 c -0.135,-1.936 -1.675,-3.477 -3.611,-3.616 l -38.555,-2.751 c -0.094,-0.007 -0.188,-0.01 -0.281,-0.01 -1.916,0 -3.569,1.406 -3.852,3.33 l -2.211,14.994 H -81.09 l -2.211,-14.994 c -0.297,-2.018 -2.101,-3.469 -4.133,-3.32 l -38.555,2.751 c -1.936,0.139 -3.476,1.68 -3.611,3.616 L -130.721,0 -163.268,3.138 c 0.015,-3.498 0.06,-7.33 0.06,-8.093 0,-34.374 43.605,-50.896 97.781,-51.086 h 0.066 0.067 c 54.176,0.19 97.766,16.712 97.766,51.086 0,0.777 0.047,4.593 0.063,8.093 z"
           fill="#478cbf"
           transform="matrix(4.162611,0,0,-4.162611,784.07144,718.72312)"
           id="path3" /><path
           d="m 0,0 c 0,-12.052 -9.765,-21.815 -21.813,-21.815 -12.042,0 -21.81,9.763 -21.81,21.815 0,12.044 9.768,21.802 21.81,21.802 C -9.765,21.802 0,12.044 0,0"
           fill="#ffffff"
           transform="matrix(4.162611,0,0,-4.162611,389.21484,527.15132)"
           id="path4" /><path
           d="m 0,0 c 0,-7.994 -6.479,-14.473 -14.479,-14.473 -7.996,0 -14.479,6.479 -14.479,14.473 0,7.994 6.483,14.479 14.479,14.479 C -6.479,14.479 0,7.994 0,0"
           fill="#414042"
           transform="matrix(4.162611,0,0,-4.162611,367.36686,532.53707)"
           id="path5" /><path
           d="m 0,0 c -3.878,0 -7.021,2.858 -7.021,6.381 v 20.081 c 0,3.52 3.143,6.381 7.021,6.381 3.878,0 7.028,-2.861 7.028,-6.381 V 6.381 C 7.028,2.858 3.878,0 0,0"
           fill="#ffffff"
           transform="matrix(4.162611,0,0,-4.162611,511.99336,626.21982)"
           id="path6" /><path
           d="m 0,0 c 0,-12.052 9.765,-21.815 21.815,-21.815 12.041,0 21.808,9.763 21.808,21.815 0,12.044 -9.767,21.802 -21.808,21.802 C 9.765,21.802 0,12.044 0,0"
           fill="#ffffff"
           transform="matrix(4.162611,0,0,-4.162611,634.78706,527.15132)"
           id="path7" /><path
           d="m 0,0 c 0,-7.994 6.477,-14.473 14.471,-14.473 8.002,0 14.479,6.479 14.479,14.473 0,7.994 -6.477,14.479 -14.479,14.479 C 6.477,14.479 0,7.994 0,0"
           fill="#414042"
           transform="matrix(4.162611,0,0,-4.162611,656.64056,532.53707)"
           id="path8" /></g><circle
         style="fill:url(#linearGradient32);fill-opacity:1;stroke:#000000;stroke-width:10;stroke-linecap:round;stroke-linejoin:bevel;stroke-dasharray:none;stroke-opacity:1;paint-order:normal"
         id="path28"
         cx="303.75912"
         cy="379.16534"
         r="59.877258" /><rect
         style="fill:#000000;fill-opacity:1;stroke:#000000;stroke-width:12.3755;stroke-linecap:round;stroke-linejoin:bevel;stroke-dasharray:none;stroke-opacity:1;paint-order:normal"
         id="rect28"
         width="90.316422"
         height="22.261497"
         x="354.43259"
         y="349.05615"
         rx="4.4094458"
         ry="0" /><rect
         style="fill:#000000;fill-opacity:1;stroke:none;stroke-width:9.68171;stroke-linecap:round;stroke-linejoin:bevel;stroke-dasharray:none;stroke-opacity:1;paint-order:normal"
         id="rect29"
         width="54.973476"
         height="33.862068"
         x="547.03082"
         y="370.35519"
         rx="0"
         ry="0" /><rect
         style="fill:#000000;fill-opacity:1;stroke:none;stroke-width:10.2355;stroke-linecap:round;stroke-linejoin:bevel;stroke-dasharray:none;stroke-opacity:1;paint-order:normal"
         id="rect29-1"
         width="61.442787"
         height="33.862068"
         x="190.76396"
         y="370.65182"
         rx="0"
         ry="0" /><circle
         style="fill:url(#linearGradient35);fill-opacity:1;stroke:#000000;stroke-width:10;stroke-linecap:round;stroke-linejoin:bevel;stroke-dasharray:none;stroke-opacity:1;paint-order:normal"
         id="circle35"
         cx="498.0162"
         cy="379.16534"
         r="59.877258" /></g></g></svg>
